<?xml version="1.0" encoding="UTF-8" standalone="no"?>
<!-- Created with Inkscape (http://www.inkscape.org/) -->

<svg
   xmlns:dc="http://purl.org/dc/elements/1.1/"
   xmlns:cc="http://creativecommons.org/ns#"
   xmlns:rdf="http://www.w3.org/1999/02/22-rdf-syntax-ns#"
   xmlns:svg="http://www.w3.org/2000/svg"
   xmlns="http://www.w3.org/2000/svg"
   version="1.1"
   width="1179.1378"
   height="229.16782"
   id="svg2"
   xml:space="preserve"><metadata
     id="metadata8"><rdf:RDF><cc:Work
         rdf:about=""><dc:format>image/svg+xml</dc:format><dc:type
           rdf:resource="http://purl.org/dc/dcmitype/StillImage" /><dc:title></dc:title></cc:Work></rdf:RDF></metadata><defs
     id="defs6" /><g
     transform="matrix(1.25,0,0,-1.25,0,229.16782)"
     id="g10"><g
       transform="scale(0.49662546,0.49662546)"
       id="g12"><path
         d="m 0,0 369.16,0 0,369.16 L 0,369.16 0,0 z"
         id="path14"
         style="fill:#6caddf;fill-opacity:1;fill-rule:nonzero;stroke:none" /><path
         d="m 87.9688,35.0586 -41.3165,0 0,185.9764 41.3165,5.606 0,-191.5824"
         id="path16"
         style="fill:#ffffff;fill-opacity:1;fill-rule:nonzero;stroke:none" /><path
         d="m 159.785,35.0586 -41.062,0 0,117.4214 38.191,0 0.781,-20.585 c 4.7,8.25 10.188,14.238 16.493,17.988 6.292,3.73 14.14,5.594 23.515,5.594 l 3.266,0 0,-43.789 -8.867,0 c -12.778,0 -21.348,-1.454 -25.735,-4.364 -4.394,-2.91 -6.582,-9.9334 -6.582,-21.0545 l 0,-51.2109"
         id="path18"
         style="fill:#ffffff;fill-opacity:1;fill-rule:nonzero;stroke:none" /><path
         d="m 211.008,35.0586 52.515,86.5434 -45.347,0 7.168,30.878 103.086,0 -52.524,-86.4058 50.957,0 -4.82,-31.0156 -111.035,0"
         id="path20"
         style="fill:#ffffff;fill-opacity:1;fill-rule:nonzero;stroke:none" /><path
         d="m 440.035,122.129 0,96.609 11.024,0 0,-87.312 35.781,0 0,-9.297 -46.805,0"
         id="path22"
         style="fill:#000000;fill-opacity:1;fill-rule:nonzero;stroke:none" /><path
         d="m 523.77,186.387 c -10.02,0 -17.176,-7.293 -18.899,-18.457 l 36.07,0 c 0.289,11.015 -6.296,18.457 -17.171,18.457 z m 28.05,-26.477 -47.519,0 c -0.711,-21.324 7.73,-30.191 23.621,-30.191 7.437,0 15.308,1.851 20.609,4.578 l 1,-9.16 c -6.586,-2.727 -14.597,-4.297 -23.472,-4.297 -21.469,0 -32.918,11.59 -32.918,36.496 0,21.324 11.449,37.215 31.199,37.215 19.609,0 27.765,-13.594 27.765,-29.348 0,-1.289 0,-3.144 -0.285,-5.293"
         id="path24"
         style="fill:#000000;fill-opacity:1;fill-rule:nonzero;stroke:none" /><path
         d="m 580.875,206.141 c -4.004,0 -7.297,3.156 -7.297,7.297 0,4.011 3.293,7.304 7.297,7.304 4.152,0 7.445,-3.293 7.445,-7.304 0,-4.141 -3.293,-7.297 -7.445,-7.297 z m 5.297,-84.012 -10.59,0 0,62.551 c -3.437,0.574 -8.301,1.14 -12.453,1.433 l 0,6.153 c 6.301,0.859 15.742,1.289 23.043,0.996 l 0,-71.133"
         id="path26"
         style="fill:#000000;fill-opacity:1;fill-rule:nonzero;stroke:none" /><path
         d="m 646,185.684 c -14.168,0 -21.188,-16.614 -21.188,-29.211 l 0,-24.903 c 4.153,-1.289 8.59,-1.851 14.032,-1.851 14.597,0 24.332,8.867 24.332,30.34 0,16.027 -5.442,25.625 -17.176,25.625 z m -21.188,4.863 c 0,-4.004 -0.425,-9.453 -1.14,-13.027 l 0.289,-0.149 c 3.859,10.734 13.164,17.18 24.184,17.18 16.75,0 26.335,-11.59 26.335,-33.633 0,-25.344 -14.308,-39.648 -36.636,-39.648 -9.59,0 -16.321,0.71 -23.621,2.722 l 0,94.035 c -3.43,0.567 -8.301,1.145 -12.45,1.426 l 0,6.152 c 6.297,0.86 15.743,1.29 23.039,1.004 l 0,-36.062"
         id="path28"
         style="fill:#000000;fill-opacity:1;fill-rule:nonzero;stroke:none" /><path
         d="m 706.824,177.52 0.289,-0.149 c 4.153,10.305 13.168,17.317 25.481,17.317 16.312,0 21.465,-10.293 21.465,-22.903 l 0,-49.656 -10.735,0 0,46.086 c 0,11.16 -3.008,17.605 -13.453,17.605 -12.738,0 -21.758,-12.597 -21.758,-29.48 l 0,-34.211 -10.59,0 0,62.551 c -3.437,0.574 -8.3,1.14 -12.449,1.433 l 0,6.153 c 6.297,0.859 15.742,1.289 23.039,0.996 0,-4.582 -0.425,-11.446 -1.289,-15.742"
         id="path30"
         style="fill:#000000;fill-opacity:1;fill-rule:nonzero;stroke:none" /><path
         d="m 788.844,206.141 c -4.004,0 -7.297,3.156 -7.297,7.297 0,4.011 3.293,7.304 7.297,7.304 4.152,0 7.445,-3.293 7.445,-7.304 0,-4.141 -3.293,-7.297 -7.445,-7.297 z m 5.297,-84.012 -10.59,0 0,62.551 c -3.438,0.574 -8.301,1.14 -12.453,1.433 l 0,6.153 c 6.3,0.859 15.742,1.289 23.043,0.996 l 0,-71.133"
         id="path32"
         style="fill:#000000;fill-opacity:1;fill-rule:nonzero;stroke:none" /><path
         d="m 814.18,122.129 0,7.59 36.211,54.246 c -4.579,-0.149 -12.164,-0.293 -20.18,-0.293 l -15.313,0 0,9.59 47.801,0 0,-7.442 -35.922,-54.101 c 4.293,0.136 13.883,0.285 20.61,0.285 l 16.031,0 0,-9.875 -49.238,0"
         id="path34"
         style="fill:#000000;fill-opacity:1;fill-rule:nonzero;stroke:none" /><path
         d="m 875.445,153.469 33.2031,0 0,8.58984 -33.2031,0 0,-8.58984 z"
         id="path36"
         style="fill:#000000;fill-opacity:1;fill-rule:nonzero;stroke:none" /><path
         d="m 948.871,210.438 c -3.578,0 -6.437,-0.145 -9.305,-0.426 l 0,-34.789 c 1.579,-0.133 4.438,-0.282 8.735,-0.282 14.883,0 23.472,7.586 23.472,18.321 0,12.597 -8.019,17.176 -22.902,17.176 z m 26.34,-88.309 -35.215,44.656 -0.43,0 0,-44.656 -11.019,0 0,96.609 c 6.156,0.285 12.453,0.434 22.758,0.434 18.172,0 31.914,-6.301 31.914,-24.328 0,-17.188 -13.742,-26.629 -31.344,-27.344 2.719,-3.289 6.012,-7.012 8.445,-10.02 l 29.059,-35.351 -14.168,0"
         id="path38"
         style="fill:#000000;fill-opacity:1;fill-rule:nonzero;stroke:none" /><path
         d="m 1027.73,186.387 c -10.02,0 -17.17,-7.293 -18.89,-18.457 l 36.07,0 c 0.28,11.015 -6.3,18.457 -17.18,18.457 z m 28.06,-26.477 -47.52,0 c -0.72,-21.324 7.73,-30.191 23.61,-30.191 7.44,0 15.32,1.851 20.62,4.578 l 0.99,-9.16 c -6.58,-2.727 -14.6,-4.297 -23.47,-4.297 -21.47,0 -32.915,11.59 -32.915,36.496 0,21.324 11.445,37.215 31.205,37.215 19.61,0 27.76,-13.594 27.76,-29.348 0,-1.289 0,-3.144 -0.28,-5.293"
         id="path40"
         style="fill:#000000;fill-opacity:1;fill-rule:nonzero;stroke:none" /><path
         d="m 1100.16,121.27 c -15.89,0 -30.77,7.011 -30.77,33.914 0,23.332 11.74,39.082 34.92,39.082 5.87,0 11.59,-0.86 16.75,-2.43 l -1.14,-9.453 c -4.73,1.863 -10.32,3.144 -16.32,3.144 -15.31,0 -22.9,-11.3 -22.9,-28.476 0,-14.602 4.58,-26.621 21.75,-26.621 6.3,0 13.17,1.574 17.89,4.004 l 1,-9.297 c -4.72,-1.867 -12.45,-3.867 -21.18,-3.867"
         id="path42"
         style="fill:#000000;fill-opacity:1;fill-rule:nonzero;stroke:none" /><path
         d="m 1127.93,219.453 0,6.152 c 6.29,0.86 15.75,1.29 23.04,1.004 l 0,-34.773 c 0,-4.727 -0.28,-10.598 -1.14,-14.18 l 0.28,-0.136 c 4.15,10.449 13.18,17.168 25.33,17.168 16.32,0 21.48,-10.293 21.48,-22.903 l 0,-49.656 -10.73,0 0,46.086 c 0,11.16 -3.01,17.605 -13.46,17.605 -12.73,0 -21.76,-12.597 -21.76,-29.48 l 0,-34.211 -10.58,0 0,95.898 c -3.44,0.567 -8.31,1.145 -12.46,1.426"
         id="path44"
         style="fill:#000000;fill-opacity:1;fill-rule:nonzero;stroke:none" /><path
         d="m 1246.87,186.387 c -10.02,0 -17.17,-7.293 -18.89,-18.457 l 36.07,0 c 0.28,11.015 -6.3,18.457 -17.18,18.457 z m 28.06,-26.477 -47.52,0 c -0.72,-21.324 7.73,-30.191 23.61,-30.191 7.44,0 15.32,1.851 20.62,4.578 l 0.99,-9.16 c -6.58,-2.727 -14.6,-4.297 -23.46,-4.297 -21.48,0 -32.92,11.59 -32.92,36.496 0,21.324 11.44,37.215 31.2,37.215 19.61,0 27.76,-13.594 27.76,-29.348 0,-1.289 0,-3.144 -0.28,-5.293"
         id="path46"
         style="fill:#000000;fill-opacity:1;fill-rule:nonzero;stroke:none" /><path
         d="m 1307.99,177.52 0.29,-0.149 c 4.15,10.305 13.17,17.317 25.47,17.317 16.32,0 21.48,-10.293 21.48,-22.903 l 0,-49.656 -10.74,0 0,46.086 c 0,11.16 -3,17.605 -13.45,17.605 -12.74,0 -21.76,-12.597 -21.76,-29.48 l 0,-34.211 -10.59,0 0,62.551 c -3.43,0.574 -8.3,1.14 -12.45,1.433 l 0,6.153 c 6.29,0.859 15.75,1.289 23.04,0.996 0,-4.582 -0.43,-11.446 -1.29,-15.742"
         id="path48"
         style="fill:#000000;fill-opacity:1;fill-rule:nonzero;stroke:none" /><path
         d="m 1375.27,122.129 0,7.59 36.21,54.246 c -4.58,-0.149 -12.17,-0.293 -20.18,-0.293 l -15.32,0 0,9.59 47.81,0 0,-7.442 -35.92,-54.101 c 4.29,0.136 13.88,0.285 20.6,0.285 l 16.04,0 0,-9.875 -49.24,0"
         id="path50"
         style="fill:#000000;fill-opacity:1;fill-rule:nonzero;stroke:none" /><path
         d="m 1467.45,186.387 c -10.02,0 -17.17,-7.293 -18.89,-18.457 l 36.06,0 c 0.29,11.015 -6.29,18.457 -17.17,18.457 z m 28.05,-26.477 -47.52,0 c -0.71,-21.324 7.73,-30.191 23.62,-30.191 7.44,0 15.32,1.851 20.61,4.578 l 1,-9.16 c -6.58,-2.727 -14.59,-4.297 -23.47,-4.297 -21.47,0 -32.92,11.59 -32.92,36.496 0,21.324 11.45,37.215 31.2,37.215 19.61,0 27.77,-13.594 27.77,-29.348 0,-1.289 0,-3.144 -0.29,-5.293"
         id="path52"
         style="fill:#000000;fill-opacity:1;fill-rule:nonzero;stroke:none" /><path
         d="m 1528.57,177.52 0.28,-0.149 c 4.15,10.305 13.18,17.317 25.48,17.317 16.32,0 21.48,-10.293 21.48,-22.903 l 0,-49.656 -10.75,0 0,46.086 c 0,11.16 -2.99,17.605 -13.44,17.605 -12.75,0 -21.76,-12.597 -21.76,-29.48 l 0,-34.211 -10.6,0 0,62.551 c -3.43,0.574 -8.3,1.14 -12.45,1.433 l 0,6.153 c 6.3,0.859 15.75,1.289 23.05,0.996 0,-4.582 -0.43,-11.446 -1.29,-15.742"
         id="path54"
         style="fill:#000000;fill-opacity:1;fill-rule:nonzero;stroke:none" /><path
         d="m 1621.47,120.984 c -14.32,0 -18.47,6.301 -18.47,21.036 l 0,42.804 -15.46,0 0,8.438 15.46,0 0,23.613 10.74,3.008 0,-26.621 20.89,0 0,-8.438 -20.89,0 0,-38.371 c 0,-12.73 2.29,-16.023 10.74,-16.023 3.57,0 7.29,0.429 10.15,1.289 l 0,-9.309 c -3.72,-0.855 -8.73,-1.426 -13.16,-1.426"
         id="path56"
         style="fill:#000000;fill-opacity:1;fill-rule:nonzero;stroke:none" /><path
         d="m 1665.55,175.371 0.28,-0.148 c 2.88,10.461 10.17,21.047 25.2,19.328 l -0.58,-10.586 c -15.59,2.578 -23.18,-9.453 -23.18,-33.36 l 0,-28.476 -10.6,0 0,62.551 c -3.42,0.574 -8.3,1.14 -12.45,1.433 l 0,6.153 c 6.3,0.859 15.76,1.289 23.05,0.996 0,-4.727 -0.58,-11.739 -1.72,-17.891"
         id="path58"
         style="fill:#000000;fill-opacity:1;fill-rule:nonzero;stroke:none" /><path
         d="m 1756.72,122.129 c 0,4.582 0.43,11.309 1.29,15.742 l -0.28,0.145 c -4.15,-10.301 -13.16,-17.325 -25.48,-17.325 -16.45,0 -21.46,10.305 -21.46,22.903 l 0,41.086 c -3.44,0.574 -8.3,1.14 -12.46,1.433 l 0,6.153 c 6.59,0.859 16.03,1.289 23.19,0.996 l 0,-46.082 c 0,-11.172 3.01,-17.61 13.46,-17.61 12.73,0 21.61,12.598 21.61,29.485 l 0,34.207 10.73,0 0,-62.547 c 3.44,-0.57 8.3,-1.145 12.45,-1.43 l 0,-6.148 c -6.3,-0.864 -15.74,-1.289 -23.05,-1.008"
         id="path60"
         style="fill:#000000;fill-opacity:1;fill-rule:nonzero;stroke:none" /><path
         d="m 1888.7,122.129 0,45.937 c 0,10.743 -2.44,17.754 -12.74,17.754 -11.02,0 -21.33,-11.308 -21.33,-29.773 l 0,-33.918 -10.73,0 0,46.086 c 0,9.734 -1.86,17.605 -12.74,17.605 -11.88,0 -21.47,-12.312 -21.47,-29.773 l 0,-33.918 -10.59,0 0,62.551 c -3.43,0.574 -8.3,1.14 -12.45,1.433 l 0,6.153 c 6.29,0.859 15.75,1.289 23.04,0.996 0,-4.582 -0.43,-11.309 -1.14,-15.742 l 0.14,-0.149 c 4.15,10.449 13.45,17.317 25.19,17.317 16.03,0 19.46,-11.583 19.76,-17.032 2.71,6.739 10.44,17.032 24.75,17.032 13.46,0 21.05,-7.149 21.05,-23.184 l 0,-49.375 -10.74,0"
         id="path62"
         style="fill:#000000;fill-opacity:1;fill-rule:nonzero;stroke:none" /><path
         d="m 465.191,65.9688 c -2.449,0.5742 -4.753,0.8671 -7.054,0.8671 -7.352,0 -12.246,-4.4726 -12.246,-15.2734 0,-8.0664 2.738,-12.8906 8.64,-12.8906 7.133,0 10.66,8.3476 10.66,14.6875 l 0,12.6094 z m 0,-31.1172 c 0,2.1601 0.215,5.6172 0.649,7.7851 l -0.141,0.0664 c -2.023,-5.1133 -6.558,-8.4922 -12.32,-8.4922 -8.859,0 -13.18,6.4727 -13.18,16.9219 0,12.7461 7.203,19.9531 18.363,19.9531 2.09,0 4.18,-0.1484 6.629,-0.3632 l 0,12.3828 c -1.73,0.2929 -4.175,0.5742 -6.265,0.7226 l 0,3.0977 c 3.168,0.4258 7.926,0.6523 11.597,0.5039 l 0,-48.25 c 1.727,-0.293 4.172,-0.5859 6.262,-0.7227 l 0,-3.0976 c -3.168,-0.4375 -7.922,-0.6524 -11.594,-0.5078"
         id="path64"
         style="fill:#000000;fill-opacity:1;fill-rule:nonzero;stroke:none" /><path
         d="m 496.793,67.1875 c -5.039,0 -8.645,-3.6719 -9.504,-9.2891 l 18.145,0 c 0.148,5.5469 -3.164,9.2891 -8.641,9.2891 z m 14.121,-13.3203 -23.918,0 c -0.355,-10.7305 3.895,-15.1953 11.887,-15.1953 3.746,0 7.703,0.9375 10.371,2.3047 l 0.508,-4.6094 C 506.445,35 502.41,34.2109 497.945,34.2109 c -10.8,0 -16.562,5.8282 -16.562,18.3555 0,10.7344 5.762,18.7344 15.703,18.7344 9.863,0 13.969,-6.8477 13.969,-14.7696 0,-0.6523 0,-1.582 -0.141,-2.664"
         id="path66"
         style="fill:#000000;fill-opacity:1;fill-rule:nonzero;stroke:none" /><path
         d="m 527.32,61.6406 0.141,-0.0703 c 1.441,5.2656 5.113,10.5859 12.676,9.7305 l -0.289,-5.332 c -7.852,1.2968 -11.664,-4.7579 -11.664,-16.7813 l 0,-14.3359 -5.332,0 0,31.4765 c -1.731,0.2813 -4.176,0.5742 -6.266,0.7227 l 0,3.0937 c 3.172,0.4297 7.922,0.6446 11.598,0.5 0,-2.375 -0.289,-5.8984 -0.864,-9.0039"
         id="path68"
         style="fill:#000000;fill-opacity:1;fill-rule:nonzero;stroke:none" /><path
         d="m 574.258,57.8984 c -0.863,0 -3.531,0 -4.684,-0.0664 l 0,-18.3008 c 1.301,-0.2148 3.457,-0.4296 6.625,-0.4296 8.571,0 12.317,4.2461 12.317,9.9414 0,6.8359 -6.266,8.8554 -14.258,8.8554 z m 2.304,21.3204 c -2.378,0 -4.898,-0.0704 -6.988,-0.1485 l 0,-16.9219 c 1.516,-0.0703 2.735,-0.0703 4.61,-0.0703 8.644,0 13.179,3.3828 13.179,9.1446 0,4.6054 -2.23,7.9961 -10.801,7.9961 z m -0.796,-44.5782 c -2.95,0 -7.559,0.1446 -11.739,0.211 l 0,48.6172 c 3.317,0.0664 7.707,0.2109 13.539,0.2109 10.594,0 15.559,-4.4609 15.559,-11.5235 0,-5.3203 -3.672,-9.9296 -9.145,-11.5195 l 0,-0.1484 c 7.204,-1.0742 10.297,-6.1133 10.297,-11.3008 0,-5.2617 -3.168,-14.5469 -18.511,-14.5469"
         id="path70"
         style="fill:#000000;fill-opacity:1;fill-rule:nonzero;stroke:none" /><path
         d="m 623.574,51.6328 c -13.469,0 -16.347,-4.25 -16.347,-7.707 0,-3.2422 2.304,-5.332 5.835,-5.332 6.336,0 10.512,6.2695 10.512,12.4609 l 0,0.5781 z m 0.289,-16.7812 c 0,2.7382 0,5.4804 0.36,7.5586 l -0.145,0 c -1.73,-4.5274 -6.34,-8.1993 -12.461,-8.1993 -5.687,0 -9.797,3.0157 -9.797,8.711 0,7.4883 7.785,12.6758 21.754,12.6758 l 0,2.9492 c 0,5.3984 -1.941,8.4258 -8.14,8.4258 -3.457,0 -7.778,-1.0743 -10.946,-3.0938 l -0.504,4.7539 c 3.383,1.5117 7.563,2.668 12.387,2.668 9.867,0 12.676,-4.9063 12.676,-11.6719 l 0,-20.4492 c 1.73,-0.293 4.18,-0.5859 6.265,-0.7227 l 0,-3.0976 c -3.238,-0.4375 -7.992,-0.6524 -11.449,-0.5078"
         id="path72"
         style="fill:#000000;fill-opacity:1;fill-rule:nonzero;stroke:none" /><path
         d="m 654.746,31.1133 c -4.18,-11.0235 -7.348,-14.6953 -15.199,-14.6953 -1.293,0 -3.098,0.1445 -4.535,0.3593 l 0.574,4.9688 c 1.441,-0.5078 2.883,-0.7227 4.469,-0.7227 4.32,0 6.476,2.0235 9.285,9.5821 l 1.66,4.2461 -13.688,35.7929 6.2,0 L 651,50.1172 c 1.152,-3.2305 1.945,-5.832 2.734,-8.4961 l 0.075,0 c 0.648,2.3047 2.164,6.7773 3.597,10.8789 l 6.41,18.1445 5.911,0 -14.981,-39.5312"
         id="path74"
         style="fill:#000000;fill-opacity:1;fill-rule:nonzero;stroke:none" /><path
         d="m 688.793,67.1875 c -5.039,0 -8.641,-3.6719 -9.5,-9.2891 l 18.145,0 c 0.144,5.5469 -3.165,9.2891 -8.645,9.2891 z m 14.121,-13.3203 -23.914,0 c -0.355,-10.7305 3.891,-15.1953 11.883,-15.1953 3.746,0 7.707,0.9375 10.371,2.3047 l 0.508,-4.6094 C 698.445,35 694.414,34.2109 689.945,34.2109 c -10.8,0 -16.562,5.8282 -16.562,18.3555 0,10.7344 5.762,18.7344 15.703,18.7344 9.863,0 13.973,-6.8477 13.973,-14.7696 0,-0.6523 0,-1.582 -0.145,-2.664"
         id="path76"
         style="fill:#000000;fill-opacity:1;fill-rule:nonzero;stroke:none" /><path
         d="m 719.32,61.6406 0.145,-0.0703 c 1.437,5.2656 5.109,10.5859 12.676,9.7305 l -0.289,-5.332 C 724,67.2656 720.188,61.2109 720.188,49.1875 l 0,-14.3359 -5.333,0 0,31.4765 c -1.73,0.2813 -4.175,0.5742 -6.265,0.7227 l 0,3.0937 c 3.168,0.4297 7.918,0.6446 11.598,0.5 0,-2.375 -0.29,-5.8984 -0.868,-9.0039"
         id="path78"
         style="fill:#000000;fill-opacity:1;fill-rule:nonzero;stroke:none" /><path
         d="m 745.02,77.1289 c -2.016,0 -3.672,1.582 -3.672,3.6719 0,2.0195 1.656,3.6719 3.672,3.6719 2.089,0 3.746,-1.6524 3.746,-3.6719 0,-2.0899 -1.657,-3.6719 -3.746,-3.6719 z m 2.668,-42.2773 -5.333,0 0,31.4765 c -1.73,0.2813 -4.175,0.5742 -6.265,0.7227 l 0,3.0937 c 3.168,0.4297 7.918,0.6446 11.598,0.5 l 0,-35.7929"
         id="path80"
         style="fill:#000000;fill-opacity:1;fill-rule:nonzero;stroke:none" /><path
         d="m 766.188,34.2109 c -2.668,0 -5.407,0.2813 -7.567,0.711 l 0.145,4.9687 c 2.304,-0.6445 5.183,-1.1523 7.996,-1.1523 5.187,0 8.785,2.3086 8.785,6.0586 0,8.5625 -17.426,3.2383 -17.426,15.9843 0,5.9766 4.891,10.5196 13.969,10.5196 2.23,0 4.75,-0.3633 6.988,-0.793 l -0.148,-4.6875 c -2.371,0.7891 -4.969,1.2305 -7.414,1.2305 -5.262,0 -7.856,-2.168 -7.856,-5.6953 0,-8.5743 17.508,-3.6719 17.508,-15.8477 0,-6.3281 -5.621,-11.2969 -14.98,-11.2969"
         id="path82"
         style="fill:#000000;fill-opacity:1;fill-rule:nonzero;stroke:none" /><path
         d="m 803.695,34.4258 c -7.992,0 -15.48,3.5234 -15.48,17.0664 0,11.7383 5.902,19.6601 17.57,19.6601 2.953,0 5.836,-0.4296 8.43,-1.2226 l -0.578,-4.7539 c -2.375,0.9375 -5.184,1.582 -8.211,1.582 -7.707,0 -11.524,-5.6836 -11.524,-14.3359 0,-7.3438 2.305,-13.3907 10.946,-13.3907 3.172,0 6.629,0.793 9.004,2.0157 l 0.503,-4.6797 c -2.378,-0.9375 -6.265,-1.9414 -10.66,-1.9414"
         id="path84"
         style="fill:#000000;fill-opacity:1;fill-rule:nonzero;stroke:none" /><path
         d="m 817.656,83.8281 0,3.0977 c 3.168,0.4258 7.918,0.6523 11.598,0.5039 l 0,-17.5 c 0,-2.3789 -0.149,-5.332 -0.578,-7.1367 l 0.14,-0.0703 c 2.09,5.2656 6.629,8.6445 12.75,8.6445 8.207,0 10.801,-5.1875 10.801,-11.5234 l 0,-24.9922 -5.398,0 0,23.1953 c 0,5.6133 -1.516,8.8554 -6.77,8.8554 -6.41,0 -10.945,-6.3359 -10.945,-14.832 l 0,-17.2187 -5.332,0 0,48.2539 c -1.731,0.2929 -4.18,0.5742 -6.266,0.7226"
         id="path86"
         style="fill:#000000;fill-opacity:1;fill-rule:nonzero;stroke:none" /><path
         d="m 877.484,67.1875 c -5.039,0 -8.64,-3.6719 -9.5,-9.2891 l 18.145,0 c 0.144,5.5469 -3.164,9.2891 -8.645,9.2891 z m 14.121,-13.3203 -23.914,0 c -0.355,-10.7305 3.891,-15.1953 11.883,-15.1953 3.746,0 7.707,0.9375 10.371,2.3047 l 0.508,-4.6094 C 887.141,35 883.105,34.2109 878.637,34.2109 c -10.801,0 -16.563,5.8282 -16.563,18.3555 0,10.7344 5.762,18.7344 15.703,18.7344 9.864,0 13.969,-6.8477 13.969,-14.7696 0,-0.6523 0,-1.582 -0.141,-2.664"
         id="path88"
         style="fill:#000000;fill-opacity:1;fill-rule:nonzero;stroke:none" /><path
         d="m 908.227,62.7227 0.148,-0.0665 c 2.086,5.1876 6.621,8.711 12.816,8.711 8.207,0 10.805,-5.1875 10.805,-11.5234 l 0,-24.9922 -5.402,0 0,23.1953 c 0,5.6133 -1.512,8.8554 -6.77,8.8554 -6.41,0 -10.945,-6.3359 -10.945,-14.832 l 0,-17.2187 -5.332,0 0,31.4765 c -1.731,0.2813 -4.176,0.5742 -6.266,0.7227 l 0,3.0937 c 3.168,0.4297 7.918,0.6446 11.598,0.5 0,-2.3047 -0.223,-5.7617 -0.652,-7.9218"
         id="path90"
         style="fill:#000000;fill-opacity:1;fill-rule:nonzero;stroke:none" /><path
         d="m 978.207,70.3594 c -0.937,2.4531 -1.582,4.6133 -2.156,7.1289 l -0.149,0 c -0.574,-2.3711 -1.297,-4.6758 -2.156,-7.0586 l -7.062,-19.2305 18.586,0 -7.063,19.1602 z m 12.824,-35.5078 -4.25,11.9531 -21.609,0 -4.32,-11.9531 -5.692,0 18.078,48.6172 5.977,0 18.074,-48.6172 -6.258,0"
         id="path92"
         style="fill:#000000;fill-opacity:1;fill-rule:nonzero;stroke:none" /><path
         d="m 1024.87,34.8516 -14.12,18.8007 0,-18.8007 -5.33,0 0,48.2539 c -1.72,0.2929 -4.17,0.5742 -6.264,0.7226 l 0,3.0977 c 3.164,0.4258 7.924,0.6523 11.594,0.5039 l 0,-32.8399 13.46,16.0547 6.56,0 -14.18,-16.2695 15.33,-19.5234 -7.05,0"
         id="path94"
         style="fill:#000000;fill-opacity:1;fill-rule:nonzero;stroke:none" /><path
         d="m 1057.4,51.6328 c -13.47,0 -16.35,-4.25 -16.35,-7.707 0,-3.2422 2.3,-5.332 5.83,-5.332 6.34,0 10.52,6.2695 10.52,12.4609 l 0,0.5781 z m 0.28,-16.7812 c 0,2.7382 0,5.4804 0.36,7.5586 l -0.13,0 c -1.73,-4.5274 -6.34,-8.1993 -12.47,-8.1993 -5.69,0 -9.79,3.0157 -9.79,8.711 0,7.4883 7.77,12.6758 21.75,12.6758 l 0,2.9492 c 0,5.3984 -1.95,8.4258 -8.14,8.4258 -3.45,0 -7.78,-1.0743 -10.94,-3.0938 l -0.51,4.7539 c 3.39,1.5117 7.56,2.668 12.39,2.668 9.86,0 12.68,-4.9063 12.68,-11.6719 l 0,-20.4492 c 1.71,-0.293 4.17,-0.5859 6.26,-0.7227 l 0,-3.0976 c -3.25,-0.4375 -8,-0.6524 -11.46,-0.5078"
         id="path96"
         style="fill:#000000;fill-opacity:1;fill-rule:nonzero;stroke:none" /><path
         d="m 1098.66,65.9688 c -2.45,0.5742 -4.76,0.8671 -7.06,0.8671 -7.35,0 -12.25,-4.4726 -12.25,-15.2734 0,-8.0664 2.73,-12.8906 8.64,-12.8906 7.13,0 10.67,8.3476 10.67,14.6875 l 0,12.6094 z m 0,-31.1172 c 0,2.1601 0.21,5.6172 0.64,7.7851 l -0.14,0.0664 c -2.02,-5.1133 -6.56,-8.4922 -12.32,-8.4922 -8.86,0 -13.18,6.4727 -13.18,16.9219 0,12.7461 7.2,19.9531 18.37,19.9531 2.09,0 4.18,-0.1484 6.63,-0.3632 l 0,12.3828 c -1.73,0.2929 -4.18,0.5742 -6.27,0.7226 l 0,3.0977 c 3.16,0.4258 7.92,0.6523 11.59,0.5039 l 0,-48.25 c 1.73,-0.293 4.18,-0.5859 6.27,-0.7227 l 0,-3.0976 c -3.17,-0.4375 -7.92,-0.6524 -11.59,-0.5078"
         id="path98"
         style="fill:#000000;fill-opacity:1;fill-rule:nonzero;stroke:none" /><path
         d="m 1130.26,67.1875 c -5.04,0 -8.64,-3.6719 -9.51,-9.2891 l 18.15,0 c 0.15,5.5469 -3.17,9.2891 -8.64,9.2891 z m 14.11,-13.3203 -23.91,0 c -0.36,-10.7305 3.89,-15.1953 11.89,-15.1953 3.74,0 7.7,0.9375 10.37,2.3047 l 0.5,-4.6094 c -3.31,-1.3672 -7.35,-2.1563 -11.81,-2.1563 -10.8,0 -16.56,5.8282 -16.56,18.3555 0,10.7344 5.76,18.7344 15.69,18.7344 9.88,0 13.98,-6.8477 13.98,-14.7696 0,-0.6523 0,-1.582 -0.15,-2.664"
         id="path100"
         style="fill:#000000;fill-opacity:1;fill-rule:nonzero;stroke:none" /><path
         d="m 1201.4,34.8516 0,23.1172 c 0,5.4101 -1.22,8.9335 -6.41,8.9335 -5.54,0 -10.73,-5.6914 -10.73,-14.9765 l 0,-17.0742 -5.41,0 0,23.1953 c 0,4.8906 -0.93,8.8554 -6.4,8.8554 -5.98,0 -10.8,-6.1875 -10.8,-14.9765 l 0,-17.0742 -5.34,0 0,31.4765 c -1.73,0.2813 -4.18,0.5742 -6.27,0.7227 l 0,3.0937 c 3.18,0.4297 7.93,0.6446 11.61,0.5 0,-2.3047 -0.22,-5.6836 -0.58,-7.9218 l 0.07,-0.0665 c 2.09,5.254 6.78,8.711 12.67,8.711 8.07,0 9.8,-5.832 9.94,-8.5742 1.37,3.3867 5.26,8.5742 12.47,8.5742 6.76,0 10.58,-3.6016 10.58,-11.6719 l 0,-24.8437 -5.4,0"
         id="path102"
         style="fill:#000000;fill-opacity:1;fill-rule:nonzero;stroke:none" /><path
         d="m 1224.28,77.1289 c -2.01,0 -3.67,1.582 -3.67,3.6719 0,2.0195 1.66,3.6719 3.67,3.6719 2.09,0 3.75,-1.6524 3.75,-3.6719 0,-2.0899 -1.66,-3.6719 -3.75,-3.6719 z m 2.67,-42.2773 -5.33,0 0,31.4765 c -1.73,0.2813 -4.18,0.5742 -6.26,0.7227 l 0,3.0937 c 3.16,0.4297 7.92,0.6446 11.59,0.5 l 0,-35.7929"
         id="path104"
         style="fill:#000000;fill-opacity:1;fill-rule:nonzero;stroke:none" /><path
         d="m 1252.08,67.1875 c -5.04,0 -8.65,-3.6719 -9.52,-9.2891 l 18.16,0 c 0.14,5.5469 -3.18,9.2891 -8.64,9.2891 z m 14.11,-13.3203 -23.91,0 c -0.36,-10.7305 3.89,-15.1953 11.89,-15.1953 3.74,0 7.7,0.9375 10.37,2.3047 l 0.49,-4.6094 c -3.31,-1.3672 -7.34,-2.1563 -11.8,-2.1563 -10.8,0 -16.56,5.8282 -16.56,18.3555 0,10.7344 5.76,18.7344 15.69,18.7344 9.87,0 13.97,-6.8477 13.97,-14.7696 0,-0.6523 0,-1.582 -0.14,-2.664"
         id="path106"
         style="fill:#000000;fill-opacity:1;fill-rule:nonzero;stroke:none" /><path
         d="m 1313.71,65.9688 c -2.46,0.5742 -4.76,0.8671 -7.06,0.8671 -7.35,0 -12.25,-4.4726 -12.25,-15.2734 0,-8.0664 2.73,-12.8906 8.64,-12.8906 7.13,0 10.67,8.3476 10.67,14.6875 l 0,12.6094 z m 0,-31.1172 c 0,2.1601 0.21,5.6172 0.64,7.7851 l -0.15,0.0664 c -2.01,-5.1133 -6.55,-8.4922 -12.31,-8.4922 -8.86,0 -13.17,6.4727 -13.17,16.9219 0,12.7461 7.19,19.9531 18.36,19.9531 2.09,0 4.17,-0.1484 6.63,-0.3632 l 0,12.3828 c -1.73,0.2929 -4.18,0.5742 -6.27,0.7226 l 0,3.0977 c 3.17,0.4258 7.92,0.6523 11.59,0.5039 l 0,-48.25 c 1.73,-0.293 4.18,-0.5859 6.27,-0.7227 l 0,-3.0976 c -3.17,-0.4375 -7.92,-0.6524 -11.59,-0.5078"
         id="path108"
         style="fill:#000000;fill-opacity:1;fill-rule:nonzero;stroke:none" /><path
         d="m 1345.31,67.1875 c -5.05,0 -8.64,-3.6719 -9.51,-9.2891 l 18.15,0 c 0.14,5.5469 -3.17,9.2891 -8.64,9.2891 z m 14.11,-13.3203 -23.91,0 c -0.36,-10.7305 3.89,-15.1953 11.89,-15.1953 3.74,0 7.7,0.9375 10.37,2.3047 l 0.5,-4.6094 c -3.31,-1.3672 -7.35,-2.1563 -11.81,-2.1563 -10.81,0 -16.57,5.8282 -16.57,18.3555 0,10.7344 5.76,18.7344 15.7,18.7344 9.87,0 13.98,-6.8477 13.98,-14.7696 0,-0.6523 0,-1.582 -0.15,-2.664"
         id="path110"
         style="fill:#000000;fill-opacity:1;fill-rule:nonzero;stroke:none" /><path
         d="m 1375.83,61.6406 0.14,-0.0703 c 1.45,5.2656 5.12,10.5859 12.68,9.7305 l -0.29,-5.332 c -7.85,1.2968 -11.67,-4.7579 -11.67,-16.7813 l 0,-14.3359 -5.33,0 0,31.4765 c -1.73,0.2813 -4.18,0.5742 -6.26,0.7227 l 0,3.0937 c 3.17,0.4297 7.92,0.6446 11.59,0.5 0,-2.375 -0.29,-5.8984 -0.86,-9.0039"
         id="path112"
         style="fill:#000000;fill-opacity:1;fill-rule:nonzero;stroke:none" /><path
         d="m 1455.41,34.8516 -6.84,0 -10.09,35 c -0.79,2.7461 -1.37,5.332 -1.8,7.7851 l -0.07,0 c -0.43,-2.5195 -1.01,-5.1172 -1.73,-7.7851 l -9.87,-35 -6.69,0 -13.04,48.6172 5.91,0 8.79,-33.5665 c 0.85,-3.3085 1.51,-6.1132 2.01,-9.1406 l 0.08,0 c 0.57,2.9492 1.22,5.8985 2.01,8.711 l 9.58,33.9961 6.48,0 10.08,-34.4258 c 0.72,-2.4492 1.45,-5.4805 1.94,-8.2149 l 0.08,0 c 0.43,2.6016 0.94,4.9024 1.58,7.3477 l 9.15,35.293 5.4,0 -12.96,-48.6172"
         id="path114"
         style="fill:#000000;fill-opacity:1;fill-rule:nonzero;stroke:none" /><path
         d="m 1482.03,77.1289 c -2.03,0 -3.68,1.582 -3.68,3.6719 0,2.0195 1.65,3.6719 3.68,3.6719 2.09,0 3.74,-1.6524 3.74,-3.6719 0,-2.0899 -1.65,-3.6719 -3.74,-3.6719 z m 2.66,-42.2773 -5.33,0 0,31.4765 c -1.73,0.2813 -4.18,0.5742 -6.27,0.7227 l 0,3.0937 c 3.17,0.4297 7.93,0.6446 11.6,0.5 l 0,-35.7929"
         id="path116"
         style="fill:#000000;fill-opacity:1;fill-rule:nonzero;stroke:none" /><path
         d="m 1503.19,34.2109 c -2.67,0 -5.4,0.2813 -7.56,0.711 l 0.15,4.9687 c 2.3,-0.6445 5.18,-1.1523 7.98,-1.1523 5.19,0 8.79,2.3086 8.79,6.0586 0,8.5625 -17.43,3.2383 -17.43,15.9843 0,5.9766 4.9,10.5196 13.98,10.5196 2.23,0 4.75,-0.3633 6.98,-0.793 l -0.14,-4.6875 c -2.38,0.7891 -4.97,1.2305 -7.42,1.2305 -5.25,0 -7.85,-2.168 -7.85,-5.6953 0,-8.5743 17.5,-3.6719 17.5,-15.8477 0,-6.3281 -5.62,-11.2969 -14.98,-11.2969"
         id="path118"
         style="fill:#000000;fill-opacity:1;fill-rule:nonzero;stroke:none" /><path
         d="m 1534,34.2109 c -2.67,0 -5.4,0.2813 -7.56,0.711 l 0.15,4.9687 c 2.3,-0.6445 5.18,-1.1523 7.99,-1.1523 5.18,0 8.78,2.3086 8.78,6.0586 0,8.5625 -17.43,3.2383 -17.43,15.9843 0,5.9766 4.9,10.5196 13.98,10.5196 2.23,0 4.75,-0.3633 6.98,-0.793 l -0.14,-4.6875 c -2.38,0.7891 -4.97,1.2305 -7.42,1.2305 -5.25,0 -7.85,-2.168 -7.85,-5.6953 0,-8.5743 17.5,-3.6719 17.5,-15.8477 0,-6.3281 -5.62,-11.2969 -14.98,-11.2969"
         id="path120"
         style="fill:#000000;fill-opacity:1;fill-rule:nonzero;stroke:none" /><path
         d="m 1571.44,67.1875 c -5.05,0 -8.64,-3.6719 -9.51,-9.2891 l 18.15,0 c 0.14,5.5469 -3.17,9.2891 -8.64,9.2891 z m 14.11,-13.3203 -23.9,0 c -0.37,-10.7305 3.88,-15.1953 11.88,-15.1953 3.74,0 7.71,0.9375 10.37,2.3047 l 0.5,-4.6094 c -3.31,-1.3672 -7.34,-2.1563 -11.81,-2.1563 -10.81,0 -16.57,5.8282 -16.57,18.3555 0,10.7344 5.76,18.7344 15.7,18.7344 9.88,0 13.98,-6.8477 13.98,-14.7696 0,-0.6523 0,-1.582 -0.15,-2.664"
         id="path122"
         style="fill:#000000;fill-opacity:1;fill-rule:nonzero;stroke:none" /><path
         d="m 1602.17,62.7227 0.15,-0.0665 c 2.09,5.1876 6.63,8.711 12.82,8.711 8.21,0 10.8,-5.1875 10.8,-11.5234 l 0,-24.9922 -5.4,0 0,23.1953 c 0,5.6133 -1.51,8.8554 -6.77,8.8554 -6.4,0 -10.94,-6.3359 -10.94,-14.832 l 0,-17.2187 -5.33,0 0,31.4765 c -1.73,0.2813 -4.18,0.5742 -6.26,0.7227 l 0,3.0937 c 3.16,0.4297 7.92,0.6446 11.59,0.5 0,-2.3047 -0.22,-5.7617 -0.66,-7.9218"
         id="path124"
         style="fill:#000000;fill-opacity:1;fill-rule:nonzero;stroke:none" /><path
         d="m 1644.44,34.2109 c -2.67,0 -5.4,0.2813 -7.56,0.711 l 0.15,4.9687 c 2.3,-0.6445 5.18,-1.1523 7.98,-1.1523 5.19,0 8.79,2.3086 8.79,6.0586 0,8.5625 -17.43,3.2383 -17.43,15.9843 0,5.9766 4.9,10.5196 13.98,10.5196 2.23,0 4.75,-0.3633 6.98,-0.793 l -0.14,-4.6875 c -2.38,0.7891 -4.97,1.2305 -7.42,1.2305 -5.25,0 -7.85,-2.168 -7.85,-5.6953 0,-8.5743 17.5,-3.6719 17.5,-15.8477 0,-6.3281 -5.62,-11.2969 -14.98,-11.2969"
         id="path126"
         style="fill:#000000;fill-opacity:1;fill-rule:nonzero;stroke:none" /><path
         d="m 1681.95,34.4258 c -8,0 -15.48,3.5234 -15.48,17.0664 0,11.7383 5.9,19.6601 17.57,19.6601 2.95,0 5.83,-0.4296 8.43,-1.2226 l -0.58,-4.7539 c -2.37,0.9375 -5.19,1.582 -8.21,1.582 -7.71,0 -11.53,-5.6836 -11.53,-14.3359 0,-7.3438 2.31,-13.3907 10.95,-13.3907 3.17,0 6.63,0.793 9,2.0157 l 0.51,-4.6797 c -2.38,-0.9375 -6.27,-1.9414 -10.66,-1.9414"
         id="path128"
         style="fill:#000000;fill-opacity:1;fill-rule:nonzero;stroke:none" /><path
         d="m 1695.91,83.8281 0,3.0977 c 3.17,0.4258 7.92,0.6523 11.59,0.5039 l 0,-17.5 c 0,-2.3789 -0.13,-5.332 -0.57,-7.1367 l 0.15,-0.0703 c 2.09,5.2656 6.62,8.6445 12.74,8.6445 8.21,0 10.81,-5.1875 10.81,-11.5234 l 0,-24.9922 -5.41,0 0,23.1953 c 0,5.6133 -1.5,8.8554 -6.77,8.8554 -6.4,0 -10.95,-6.3359 -10.95,-14.832 l 0,-17.2187 -5.33,0 0,48.2539 c -1.72,0.2929 -4.17,0.5742 -6.26,0.7226"
         id="path130"
         style="fill:#000000;fill-opacity:1;fill-rule:nonzero;stroke:none" /><path
         d="m 1762.51,51.6328 c -13.46,0 -16.34,-4.25 -16.34,-7.707 0,-3.2422 2.3,-5.332 5.83,-5.332 6.33,0 10.51,6.2695 10.51,12.4609 l 0,0.5781 z m 0.29,-16.7812 c 0,2.7382 0,5.4804 0.36,7.5586 l -0.14,0 c -1.73,-4.5274 -6.34,-8.1993 -12.46,-8.1993 -5.69,0 -9.79,3.0157 -9.79,8.711 0,7.4883 7.77,12.6758 21.74,12.6758 l 0,2.9492 c 0,5.3984 -1.94,8.4258 -8.13,8.4258 -3.46,0 -7.78,-1.0743 -10.95,-3.0938 l -0.51,4.7539 c 3.39,1.5117 7.56,2.668 12.4,2.668 9.86,0 12.67,-4.9063 12.67,-11.6719 l 0,-20.4492 c 1.72,-0.293 4.17,-0.5859 6.26,-0.7227 l 0,-3.0976 c -3.24,-0.4375 -8,-0.6524 -11.45,-0.5078"
         id="path132"
         style="fill:#000000;fill-opacity:1;fill-rule:nonzero;stroke:none" /><path
         d="m 1802.84,82.6055 c -1.81,0.5781 -3.75,0.7929 -5.63,0.7929 -5.47,0 -7.92,-3.1757 -7.92,-10.0898 l 0,-2.6641 10.59,0 0,-4.25 -10.59,0 0,-31.5429 -5.4,0 0,31.5429 -7.77,0 0,4.25 7.77,0 0,2.5196 c 0,10.0195 4.97,14.6289 13.55,14.6289 2.01,0 3.95,-0.2149 5.89,-0.6524 l -0.49,-4.5351"
         id="path134"
         style="fill:#000000;fill-opacity:1;fill-rule:nonzero;stroke:none" /><path
         d="m 1816.43,34.2773 c -7.21,0 -9.3,3.1641 -9.3,10.586 l 0,21.5312 -7.77,0 0,4.25 7.77,0 0,11.8828 5.4,1.5157 0,-13.3985 10.52,0 0,-4.25 -10.52,0 0,-19.2968 c 0,-6.4141 1.16,-8.0665 5.4,-8.0665 1.81,0 3.69,0.2149 5.12,0.6485 l 0,-4.6797 c -1.87,-0.4297 -4.39,-0.7227 -6.62,-0.7227"
         id="path136"
         style="fill:#000000;fill-opacity:1;fill-rule:nonzero;stroke:none" /><path
         d="m 1844.44,67.1875 c -5.04,0 -8.64,-3.6719 -9.51,-9.2891 l 18.15,0 c 0.15,5.5469 -3.17,9.2891 -8.64,9.2891 z m 14.11,-13.3203 -23.91,0 c -0.36,-10.7305 3.89,-15.1953 11.89,-15.1953 3.74,0 7.7,0.9375 10.37,2.3047 l 0.5,-4.6094 c -3.31,-1.3672 -7.35,-2.1563 -11.81,-2.1563 -10.8,0 -16.56,5.8282 -16.56,18.3555 0,10.7344 5.76,18.7344 15.69,18.7344 9.87,0 13.98,-6.8477 13.98,-14.7696 0,-0.6523 0,-1.582 -0.15,-2.664"
         id="path138"
         style="fill:#000000;fill-opacity:1;fill-rule:nonzero;stroke:none" /><path
         d="m 1875.18,62.7227 0.14,-0.0665 c 2.09,5.1876 6.63,8.711 12.82,8.711 8.21,0 10.8,-5.1875 10.8,-11.5234 l 0,-24.9922 -5.4,0 0,23.1953 c 0,5.6133 -1.51,8.8554 -6.77,8.8554 -6.41,0 -10.94,-6.3359 -10.94,-14.832 l 0,-17.2187 -5.34,0 0,31.4765 c -1.73,0.2813 -4.18,0.5742 -6.27,0.7227 l 0,3.0937 c 3.18,0.4297 7.93,0.6446 11.61,0.5 0,-2.3047 -0.22,-5.7617 -0.65,-7.9218"
         id="path140"
         style="fill:#000000;fill-opacity:1;fill-rule:nonzero;stroke:none" /></g></g></svg>
